HIERARCHY
ROOT Hips
{
    OFFSET 0.000000 0.000000 0.000000
    CHANNELS 6 Xposition Yposition Zposition Zrotation Xrotation Yrotation
    JOINT Spine
    {
        OFFSET -0.000000 7.236184 0.000000
        CHANNELS 3 Zrotation Xrotation Yrotation
        JOINT Spine1
        {
            OFFSET -0.000000 20.420147 0.000000
            CHANNELS 3 Zrotation Xrotation Yrotation
            JOINT Neck
            {
                OFFSET -0.000000 20.336288 1.848754
                CHANNELS 3 Zrotation Xrotation Yrotation
                JOINT Head
                {
                    OFFSET -0.000000 12.354461 -1.764923
                    CHANNELS 3 Zrotation Xrotation Yrotation
                    End Site
                    {
                        OFFSET -0.000000 22.061537 0.000000
                    }
                }
            }
            JOINT LeftShoulder
            {
                OFFSET 3.573296 18.396038 -0.314103
                CHANNELS 3 Zrotation Xrotation Yrotation
                JOINT LeftArm
                {
                    OFFSET 10.880760 0.000000 0.000000
                    CHANNELS 3 Zrotation Xrotation Yrotation
                    JOINT LeftForeArm
                    {
                        OFFSET 27.185530 0.000000 0.000000
                        CHANNELS 3 Zrotation Xrotation Yrotation
                        JOINT LeftHand
                        {
                            OFFSET 27.825975 0.000000 0.000000
                            CHANNELS 3 Zrotation Xrotation Yrotation
                            End Site
                            {
                                OFFSET 13.236923 0.000000 0.000000
                            }
                        }
                    }
                }
            }
            JOINT RightShoulder
            {
                OFFSET -3.474926 18.396038 -0.314103
                CHANNELS 3 Zrotation Xrotation Yrotation
                JOINT RightArm
                {
                    OFFSET -10.880760 0.000000 0.000000
                    CHANNELS 3 Zrotation Xrotation Yrotation
                    JOINT RightForeArm
                    {
                        OFFSET -27.185530 0.000000 0.000000
                        CHANNELS 3 Zrotation Xrotation Yrotation
                        JOINT RightHand
                        {
                            OFFSET -27.825975 0.000000 0.000000
                            CHANNELS 3 Zrotation Xrotation Yrotation
                            End Site
                            {
                                OFFSET -13.236923 0.000000 0.000000
                            }
                        }
                    }
                }
            }
        }
    }
    JOINT LeftUpLeg
    {
        OFFSET 8.824615 0.000000 0.000000
        CHANNELS 3 Zrotation Xrotation Yrotation
        JOINT LeftLeg
        {
            OFFSET -0.000000 -35.111282 0.000000
            CHANNELS 3 Zrotation Xrotation Yrotation
            JOINT LeftFoot
            {
                OFFSET -0.000000 -42.324711 0.000000
                CHANNELS 3 Zrotation Xrotation Yrotation
                JOINT LeftToeBase
                {
                    OFFSET -0.000000 -5.735999 13.236923
                    CHANNELS 3 Zrotation Xrotation Yrotation
                    End Site
                    {
                        OFFSET -0.000000 0.000000 3.529846
                    }
                }
            }
        }
    }
    JOINT RightUpLeg
    {
        OFFSET -8.824615 0.000000 0.000000
        CHANNELS 3 Zrotation Xrotation Yrotation
        JOINT RightLeg
        {
            OFFSET -0.000000 -35.111282 0.000000
            CHANNELS 3 Zrotation Xrotation Yrotation
            JOINT RightFoot
            {
                OFFSET -0.000000 -42.324711 0.000000
                CHANNELS 3 Zrotation Xrotation Yrotation
                JOINT RightToeBase
                {
                    OFFSET -0.000000 -5.735999 13.236923
                    CHANNELS 3 Zrotation Xrotation Yrotation
                    End Site
                    {
                        OFFSET -0.000000 0.000000 3.529846
                    }
                }
            }
        }
    }
}
MOTION
Frames:    12
Frame Time:    0.008333
-4.746047    82.839600    109.265602    4.843622    -9.263950    -153.693085    -1.683293    -11.408190    -1.260911    2.810642    8.392553    -1.298908    -0.671646    14.278420    -9.173255    16.098387    5.065578    -7.958484    5.715568    6.718364    -18.524502    -31.988312    23.074116    -75.247803    -1.915257    -33.343575    -121.885208    32.075085    -33.243114    12.355193    -1.209760    5.788712    11.148308    51.931213    -6.825924    57.294231    1.843369    -34.815804    134.588959    -14.520800    -37.916389    -4.381122    8.547320    -24.783920    2.615331    -1.829871    25.962742    17.858635    -8.037757    -5.446802    -12.684058    0.591063    -0.585133    -0.655867    -9.782327    -7.911928    -7.736340    11.594747    21.033998    -15.626275    0.000000    0.000000    0.000000    0.000000    0.000000    0.000000    
-4.774192    82.835968    109.249100    5.058290    -9.207138    -152.883438    -1.682677    -11.408872    -1.229699    2.795256    8.424786    -1.267367    -0.723772    14.305269    -9.381628    16.432379    5.035843    -8.138508    5.735363    6.675536    -18.496241    -31.741289    23.268745    -75.524612    -2.179332    -33.223705    -122.025429    32.486992    -33.420670    12.636634    -1.204494    5.853128    11.136310    52.421494    -6.761237    57.260818    1.884192    -34.769604    135.024521    -14.541285    -37.982540    -4.423584    8.457564    -25.030144    2.201739    -1.719369    26.011923    17.455235    -8.051824    -5.456205    -12.719357    0.613808    -0.512945    -0.681016    -9.701682    -7.712107    -7.670544    11.593609    21.046507    -15.607320    0.000000    0.000000    0.000000    0.000000    0.000000    0.000000    
-4.801690    82.829559    109.230736    5.266071    -9.142677    -152.070862    -1.686364    -11.407152    -1.198366    2.778303    8.463258    -1.235423    -0.775042    14.330529    -9.592750    16.763039    5.010672    -8.322328    5.750336    6.638114    -18.456442    -31.504341    23.468643    -75.795746    -2.461220    -33.078217    -122.179596    32.925037    -33.594383    12.933955    -1.186634    5.941003    11.111103    52.900627    -6.674359    57.180035    1.947925    -34.669819    135.483765    -14.541613    -38.046886    -4.462862    8.361666    -25.277977    1.785772    -1.610074    26.076378    17.048742    -8.062957    -5.464091    -12.754841    0.633440    -0.446094    -0.702712    -9.620079    -7.521137    -7.587043    11.590543    21.086592    -15.590309    0.000000    0.000000    0.000000    0.000000    0.000000    0.000000    
-4.828363    82.820236    109.210732    5.467078    -9.071711    -151.252884    -1.695075    -11.403040    -1.166590    2.759381    8.506106    -1.202426    -0.823844    14.357745    -9.807148    17.090302    4.987634    -8.510242    5.761497    6.606246    -18.407091    -31.277496    23.673456    -76.060783    -2.757624    -32.907467    -122.344955    33.390640    -33.759575    13.247152    -1.153376    6.054833    11.070983    53.367176    -6.570389    57.047100    2.034691    -34.509594    135.962402    -14.520546    -38.105282    -4.496959    8.259184    -25.529676    1.374709    -1.498794    26.157087    16.630276    -8.072118    -5.470743    -12.791619    0.650285    -0.384160    -0.721317    -9.538441    -7.339650    -7.486896    11.587239    21.154406    -15.579195    0.000000    0.000000    0.000000    0.000000    0.000000    0.000000    
-4.854426    82.807724    109.188911    5.663415    -8.994181    -150.417877    -1.709486    -11.396413    -1.133784    2.737641    8.552217    -1.167819    -0.869385    14.389866    -10.027758    17.417883    4.964926    -8.704717    5.769295    6.579754    -18.348978    -31.057108    23.885685    -76.322601    -3.066677    -32.711536    -122.520058    33.890175    -33.912495    13.579844    -1.100591    6.199259    11.013319    53.823761    -6.454679    56.855965    2.145651    -34.278770    136.460785    -14.477305    -38.153038    -4.525191    8.148222    -25.789513    0.970203    -1.381370    26.255602    16.186874    -8.080138    -5.476707    -12.831276    0.665157    -0.325693    -0.737736    -9.456656    -7.165599    -7.371734    11.585096    21.251060    -15.576005    0.000000    0.000000    0.000000    0.000000    0.000000    0.000000    
-4.879545    82.792160    109.165367    5.853147    -8.910893    -149.571609    -1.729426    -11.387583    -1.100920    2.712917    8.600672    -1.132387    -0.911393    14.428793    -10.252588    17.744167    4.941683    -8.903759    5.774450    6.558867    -18.283150    -30.845016    24.102690    -76.578987    -3.379844    -32.494747    -122.699402    34.417927    -34.045673    13.927103    -1.026310    6.375768    10.936976    54.262634    -6.337248    56.603863    2.279059    -33.971130    136.966492    -14.412663    -38.182522    -4.545689    8.029430    -26.055237    0.580540    -1.256685    26.370621    15.716562    -8.087433    -5.481973    -12.874345    0.678994    -0.270717    -0.753008    -9.375581    -6.999596    -7.247585    11.585423    21.375206    -15.581164    0.000000    0.000000    0.000000    0.000000    0.000000    0.000000    
-4.903824    82.773659    109.139511    6.037404    -8.820723    -148.707550    -1.754473    -11.376989    -1.069110    2.684959    8.652288    -1.097343    -0.950505    14.475911    -10.482458    18.072380    4.917376    -9.107830    5.777627    6.542675    -18.209253    -30.639662    24.324900    -76.831665    -3.692908    -32.259388    -122.879646    34.970947    -34.155781    14.286162    -0.927737    6.587729    10.840070    54.681499    -6.228563    56.287621    2.433287    -33.579082    137.472290    -14.327176    -38.185535    -4.556628    7.902274    -26.326502    0.203930    -1.123614    26.500113    15.215328    -8.094201    -5.485917    -12.922481    0.692411    -0.219526    -0.767816    -9.293759    -6.837964    -7.121202    11.588861    21.525227    -15.593868    0.000000    0.000000    0.000000    0.000000    0.000000    0.000000    
-4.927433    82.752373    109.110641    6.217861    -8.721890    -147.816528    -1.783956    -11.364634    -1.039642    2.653635    8.707506    -1.064121    -0.988335    14.532643    -10.718693    18.407452    4.891724    -9.317747    5.779172    6.531464    -18.126284    -30.438641    24.551683    -77.083939    -4.004005    -32.006359    -123.057961    35.544384    -34.242085    14.652470    -0.802481    6.839427    10.720733    55.077972    -6.141085    55.903076    2.605369    -33.095665    137.970154    -14.220669    -38.151882    -4.555450    7.765863    -26.603016    -0.166070    -0.982096    26.641527    14.681609    -8.100399    -5.487458    -12.977425    0.707070    -0.172847    -0.784005    -9.208889    -6.676137    -6.999780    11.595679    21.699617    -15.612316    0.000000    0.000000    0.000000    0.000000    0.000000    0.000000    
-4.950303    82.728714    109.078468    6.394284    -8.614023    -146.898605    -1.817316    -11.350816    -1.014340    2.619456    8.766298    -1.034437    -1.026663    14.598979    -10.960350    18.751410    4.865631    -9.532477    5.778944    6.524826    -18.033247    -30.242046    24.780424    -77.336479    -4.309371    -31.737801    -123.230270    36.126762    -34.303764    15.017404    -0.649399    7.132262    10.578173    55.443691    -6.089515    55.449909    2.788707    -32.521992    138.445419    -14.092260    -38.069401    -4.538595    7.620382    -26.882013    -0.533150    -0.833919    26.790770    14.120009    -8.105909    -5.485425    -13.039986    0.724837    -0.133627    -0.803649    -9.119513    -6.511516    -6.890520    11.606075    21.894310    -15.634820    0.000000    0.000000    0.000000    0.000000    0.000000    0.000000    
-4.972629    82.702950    109.042526    6.568357    -8.495976    -145.944168    -1.854507    -11.335289    -0.994262    2.582498    8.828248    -1.009508    -1.067095    14.675529    -11.209612    19.109766    4.839830    -9.753815    5.777371    6.523101    -17.928284    -30.046736    25.010790    -77.594093    -4.609337    -31.453123    -123.395103    36.716156    -34.341568    15.378778    -0.466566    7.470094    10.409666    55.773323    -6.088378    54.924271    2.975707    -31.859627    138.886749    -13.938323    -37.924568    -4.500264    7.464089    -27.164410    -0.903967    -0.678728    26.945713    13.528079    -8.110677    -5.478877    -13.111489    0.748064    -0.103490    -0.829355    -9.023268    -6.340133    -6.797728    11.620471    22.106585    -15.660799    0.000000    0.000000    0.000000    0.000000    0.000000    0.000000    
-4.994384    82.675667    109.002876    6.739177    -8.368574    -144.956207    -1.895723    -11.318047    -0.980549    2.543548    8.891917    -0.990372    -1.111008    14.761443    -11.465752    19.483622    4.815952    -9.981171    5.774354    6.527257    -17.810499    -29.851126    25.239340    -77.858597    -4.901475    -31.154579    -123.549561    37.305378    -34.355419    15.731422    -0.254141    7.851829    10.214239    56.054348    -6.152218    54.328411    3.154067    -31.124823    139.276230    -13.755982    -37.703392    -4.434887    7.296710    -27.447874    -1.279243    -0.517624    27.102722    12.909883    -8.114867    -5.467410    -13.191755    0.777690    -0.083395    -0.862169    -8.919438    -6.160662    -6.724683    11.639513    22.330721    -15.690090    0.000000    0.000000    0.000000    0.000000    0.000000    0.000000    
-5.016111    82.646904    108.958801    6.909321    -8.230093    -143.917252    -1.942262    -11.298508    -0.973387    2.502571    8.956893    -0.977237    -1.159870    14.858098    -11.733848    19.881561    4.794328    -10.219130    5.770333    6.539077    -17.677145    -29.648149    25.467743    -78.137779    -5.189561    -30.839895    -123.694618    37.899124    -34.347450    16.078676    -0.008303    8.282007    9.985835    56.279037    -6.294704    53.651772    3.312965    -30.326466    139.603394    -13.537229    -37.387791    -4.333997    7.114326    -27.736109    -1.667514    -0.348617    27.261621    12.256346    -8.118448    -5.450837    -13.281787    0.814586    -0.071665    -0.903054    -8.805264    -5.968103    -6.671202    11.664509    22.565226    -15.724129    0.000000    0.000000    0.000000    0.000000    0.000000    0.000000    
